/* XPM */
static char *collectible[] = {
/* columns rows colors chars-per-pixel */
"64 63 212 2 ",
"   c None",
".  c #0D0D25",
"X  c #0D0D2C",
"o  c #100F2E",
"O  c #131327",
"+  c #12122C",
"@  c #0D0E34",
"#  c #0E0F3A",
"$  c #100F36",
"%  c #100F3B",
"&  c #0E1036",
"*  c #0F103B",
"=  c #131433",
"-  c #12123D",
";  c #1C1C3B",
":  c #1A1837",
">  c #0F102F",
",  c #201838",
"<  c #211D37",
"1  c #2A1C2B",
"2  c #2F202E",
"3  c #32232D",
"4  c #33282E",
"5  c #352431",
"6  c #3B2635",
"7  c #352B32",
"8  c #3B2C34",
"9  c #3B263B",
"0  c #3A283A",
"q  c #3B3437",
"w  c #3C333A",
"e  c #393A3A",
"r  c #363338",
"t  c #41293D",
"y  c #402E37",
"u  c #42353C",
"i  c #48373C",
"p  c #3B413C",
"a  c #0E0F41",
"s  c #100F41",
"d  c #0F1042",
"f  c #0F1149",
"g  c #111244",
"h  c #1B1B44",
"j  c #12134B",
"k  c #17184E",
"l  c #1B1B4A",
"z  c #171747",
"x  c #121353",
"c  c #191A52",
"v  c #12145C",
"b  c #181956",
"n  c #0F1352",
"m  c #211F46",
"M  c #1F2148",
"N  c #232144",
"B  c #23214A",
"V  c #2A2948",
"C  c #34314B",
"Z  c #3A3847",
"A  c #232354",
"S  c #2A2B52",
"D  c #272659",
"F  c #3C3653",
"G  c #353658",
"H  c #372D4A",
"J  c #131663",
"K  c #141865",
"L  c #1A1B62",
"P  c #141769",
"I  c #15186A",
"U  c #1A1D6C",
"Y  c #161A73",
"T  c #191C78",
"R  c #1E206C",
"E  c #1D2277",
"W  c #2A2A69",
"Q  c #393867",
"!  c #212472",
"~  c #282A77",
"^  c #363676",
"/  c #2D3070",
"(  c #4A2D44",
")  c #442B43",
"_  c #483946",
"`  c #413A59",
"'  c #463E66",
"]  c #3E4A44",
"[  c #3B454E",
"{  c #3C4545",
"}  c #394654",
"|  c #3E4B54",
" . c #3E5152",
".. c #3B476B",
"X. c #3B5569",
"o. c #464447",
"O. c #584648",
"+. c #43574A",
"@. c #474855",
"#. c #544857",
"$. c #425354",
"%. c #435A55",
"&. c #5C5B53",
"*. c #58544E",
"=. c #644E4F",
"-. c #624C51",
";. c #6B5556",
":. c #6D585A",
">. c #665255",
",. c #715B5C",
"<. c #466552",
"1. c #496C59",
"2. c #4D7A5E",
"3. c #4B745B",
"4. c #566A58",
"5. c #65665A",
"6. c #4B4567",
"7. c #525268",
"8. c #63566B",
"9. c #695B69",
"0. c #715D64",
"q. c #63587B",
"w. c #46656D",
"e. c #496A6C",
"r. c #4F7F61",
"t. c #4C7667",
"y. c #466875",
"u. c #4D757C",
"i. c #4C777C",
"p. c #5A7470",
"a. c #6D6863",
"s. c #74636E",
"d. c #7B6566",
"f. c #796773",
"g. c #6A7B6A",
"h. c #836C6C",
"j. c #846B69",
"k. c #88706D",
"l. c #887377",
"z. c #937B7B",
"x. c #538D6B",
"c. c #558767",
"v. c #56946E",
"b. c #5A916C",
"n. c #538B7F",
"m. c #528679",
"M. c #599C73",
"N. c #56937D",
"B. c #589B7F",
"V. c #569577",
"C. c #4D8371",
"Z. c #62846D",
"A. c #629D77",
"S. c #798E73",
"D. c #5BA276",
"F. c #5BA57C",
"G. c #5EAC7C",
"H. c #5FB27E",
"J. c #60B37F",
"K. c #67A77B",
"L. c #889479",
"P. c #1B1E81",
"I. c #383B87",
"U. c #252880",
"Y. c #555694",
"T. c #4B4D93",
"R. c #4F7A80",
"E. c #517D81",
"W. c #7E7F8B",
"Q. c #7072AE",
"!. c #807F8A",
"~. c #538281",
"^. c #598284",
"/. c #598A83",
"(. c #589680",
"). c #7F808C",
"_. c #6D958C",
"`. c #739A8E",
"'. c #7F8191",
"]. c #69908A",
"[. c #5BA380",
"{. c #5FB180",
"}. c #63AD81",
"|. c #62B581",
" X c #6AB784",
".X c #75BC89",
"XX c #77BD89",
"oX c #7CA789",
"OX c #80818C",
"+X c #808191",
"@X c #818399",
"#X c #84A996",
"$X c #8DB499",
"%X c #96BB98",
"&X c #8EA785",
"*X c #A2B791",
"=X c #999BAB",
"-X c #9A9AA7",
";X c #8082B2",
":X c #A2A3B2",
">X c #A19C98",
",X c #8CC895",
"<X c #9ED29E",
"1X c #91C895",
"2X c #A4D29D",
"3X c #A7C7A7",
"4X c #B6D7AA",
"5X c #AED9A8",
"6X c #BDE1AD",
"7X c #C3DFAE",
"8X c #C5E3B2",
"9X c #9394C6",
/* pixels */
"                                                                                                                                ",
"@Xk k k k d a # & & * * * d d g g d * * * # # @ @ @ @ @ @ & & @ X X @ @ % % - - # # # # # * d f k k x x x v J J v v v v k g g =X",
"@Xk k k W c # # & @ @ # * g g g d # # * * # # # * * * @ @ @ @ @ @ @ @ @ @ % * * # - g * d d d f k k k x x x v v v x v x f g g =X",
"@Xk k k A A * # # # # # * g g d * # # # # # # a g g g * # @ @ @ @ @ @ @ @ @ @ @ @ k Q g d a d k k k k x x x v v v v v x k d g =X",
"@Xk k g a k - # # * * * g g g # # * # # # # * g k k g g # # @ @ & @ @ @ @ X @ @ & - z g g k k k k x x v v v I P P I L b x k h :X",
"@Xg g # # # * @ # * # # # * * # # - - * * # d g k k g g * # # # @ @ @ @ @ X @ @ & * * g g k g d k x v J J ! I.I Y E ^ ^ D k h :X",
"@X- # # # @ @ @ % % - B * # # # # * * * d g g g g g g g g * # # & & @ @ @ @ @ @ & * * - g g d d k x J P P Y E Y T ~ Q.;XQ b k =X",
"@X- * & & @ @ @ - M - k * @ & * * # * d a g g g * a a g g d * # & @ @ @ @ @ & * & & & * * g g k x v J J I I Y T T I.9X9X^ L k =X",
"OX= @ @ @ & @ @ - S - # # # @ * * * # s g g d * # # a d g g d * * @ @ @ @ @ * * # @ # # d d g k x J J J I I T P.P.~ T.T./ L c =X",
").= @ @ @ @ & @ @ @ # * * # # & & & # % g - & & @ # d k k k g d * # @ @ @ # * * # * * d d g k x v J K I I.I.E P.T T E R W W k =X",
"OX= @ @ @ @ @ @ @ @ * * - - * * @ - G - # & @ @ # # a g d d d d g * * @ @ * * d * * g k f k x x v J I ! Q.Q.E T Y I K J J v k =X",
"OX+ @ $ $ @ @ @ @ @ @ @ * g g d # - 6.: @ @ X @ # # * # # a d d g g * # # # * d d d g k x f x x v / I I I.I.! T Y J v v v v k =X",
"OX+ X @ $ $ # # @ @ @ @ # * g d * N = X X X X @ # * & S k # g k g g a a a a g k d d f x x x x x J I K J I ! U.T P J v v v v k =X",
").+ X @ @ @ % - # * & @ # # d d - - > X X X X @ # & & M g * g g k g g a d a g k k d f x v v v v P P J v v J I I P K L J v x z =X",
"W.+ X X @ @ # g * # * * * * * * * @ X X X X X @ @ & # # # * d d a a a a d d d k g d k k x x v J I P J v v v J J J J ! I v x z =X",
").+ X X X @ # - * # # # * * # # & @ @ @ @ @ @ @ @ @ @ h B B B N B B h # # # # d * # d k k x v v v v v J J v v J J J J J v x k =X",
").+ X X X & & & * * # # * # @ @ @ X X X @ @ @ @ @ F #.f.z.z.z.z.z.z.l.7.` - @ # @ @ # g k k x x x v v J J v v J v v J v x f k =X",
"W.+ X X @ & & & & & * * @ @ @ @ @ X X X = ; N 8.s.h.j.O.8 8 8 8 q 8 i j.h.s.F - @ @ # # g k k k v v J K K J J J v v v v x k k =X",
"W.+ X @ @ @ @ @ & @ @ @ @ @ @ X @ X = C 9.z.z.>.O.w r } w.w.w.w.w.X.Z r Z *.h.s.F - # # a a f x v J J J K I P J v x x x k f k =X",
"W.+ X X X X @ @ @ @ @ @ @ X X X X = #.h.O.8 o.$.$.w.i.^.#X$X$X$X#XE.i.i.i.} 8 O.h.s.f.f.f.f.' k x v J J J I I J v x k k k k k =X",
").O . X X X X X X X X X X X X X + @.:.8 r } p.3X#XR.E.#X4X4X4X4X3X`.R.R.R.e.r 4 4 O.-.=.=.=.0.6.x v v J J ! ! v v x k k x x z =X",
").O . . X X X X X X X X X X X X @.:.8 } y.i._.%X`.R.R.E.^.^.^.^.^.E.R.R.R.e.| | | { { { { { o.0.' x v v v J ! ~ v x x x x v k =X",
").O . . X . X X X X X X X X + #.:.8 $.i.R.R.R.i.R.R.R.R.R.R.R.R.R.R.R.R.R.R.R.R.R.R.R.R.E./.u.o.0.' v v v J ~ I.J v x x x x k =X",
").O . X X X X X X X X X X X < >.8 | i.R.R.R.R.R.R.R.R.R.R.R.R.R.R.R.R.R.R.R.R.R.R.R.R.R.~.3X$Xy._ l.W L K J J I P J x x x x k =X",
"!.O . X X X X X X X X : G @._ 4 $.i.i.R.R.R.R.R.R.R.R.R.R.R.R.R.R.R.R.R.R.R.R.R.E.R.R.R.E.`._.i.Z >.q.I K J J P P J v x x x z =X",
"!.O . X X X X X X X X ; Q s.>.Z i.i.X.y.R.R.R.R.R.R.R.R.R.R.R.R.R.R.R.R.R.R.i.y.y.y.R.R.R.i._.].%._ f.W J J J J P P J v x x c =X",
"!.O . X X X X X X X X @ V h._ e.~.i.X.X.i.R.R.R.R.R.R.R.R.R.R.R.R.R.R.R.R.R.y.C.C.V.n.i.R.R.R.R.i.{ :.q.J J K I I P J v v v x =X",
"OXO . X X X X X X X @ @ ` k.r r.~.~.i.X.y.E.R.R.R.R.R.R.R.R.R.R.R.R.R.R.~.n.F. XA.c.M.[.~.R.i.i.R.w.u l.W J K P I I J v v v c =X",
").O . X X X X @ X @ @ ; 8.O.4 e e.n.E.R.R.R.R.^.#XoX~.E.R.R.R.R.R.R.R.R.n.F. XL.*.OXg.M.F.N.n.R.E.C.q z./ J I P P P J v v x k =X",
").O X X X X @ @ @ @ # 9.>.q 1.] $.N.(./.~.R.n./.%X$X`._.R.R.R.R.R.~.~.N.F. X%XO.w =X9.+.G.H.G.n.C.M.w z./ J I P P J v x x x g =X",
"W.O X X X @ @ @ * * d @.i $.B.F.F.G.F.B.n.n.N.n.(.~.]./.R.R.R.E.N.N.B.F.H. X%Xi 4 7 4 ] G.J. XF.v.V.q k./ P K K J v v x x k g -X",
"W.+ X @ @ @ # % * d g , e C.F.J.J.v.+.b.}.N.n.n.n.R.E.E.E.~.~.B.B.1.c.D.{.J..XS.w 2 e x.J.J. XG.v.+.4 _ D J J K v x x k k k g -X",
"OX+ X @ @ # d g d d g , p V.c.G.J.G.] &.1X XG.[.[.N.n./.N.c.%.v.G.c.e ] 2.F.J..XZ.<.x.J.J.H.G.1.7 5 t 5 H L J v x k g g g g g =X",
"!.+ X @ * * g g g d k , e V.%.M. X X<.*.4X<X X{.H.H.F.x.] e r p +.D.v.<.e ] 2.M.{. X XF.V.t.] 4 6 ( ) 6 H b v v x g d d g g g =X",
"W.V N @ * * g g g g d , e x.] t. X,XK.e a.4X,XXX.X.X.X+.r t.N.2.+.+.G.H.M.] 4 Z 1.2.1.$.r i 0.:.8 9 5 y #.c x x k g d d g d - =X",
"W.C S # * * * g d g g : e x.{ +.H..X,Xg.8 *X4X6X5X<X2X&.{ B.x.2.x.1.v.G.D.1.4 4 4 4 4 8 :.l.7.8.0._ :.l.' k k k g d * * d d g =X",
"@X= # * # # # # * * # F u o.u +.G..X4X*Xo.O.L.&X4X8X7X>.+.}.oX4.<.<.] %.{ 7 4 9 9 9 5 =.f.B d k 6.l.8.D k d k k d d # * d d g =X",
"'.= * # # @ @ # @ @ @ 9.>.6 ( w c.J.<X4X4.4 i u &.5.5.q r c.4X,X XJ.c.r.1.q 8 t ) H 8 d.` # * d d g g g g d d g a g d a d g g =X",
"'.- * # # & @ @ @ @ & h 9.O.) 6 e 2.c.c.] i >Xk.>.>.>.:.O.e r.A.5X,XH. XK.g.-.( ( ( t >.8.# # # # # # d d g d d g g s g g k k =X",
"'.- * * * & @ @ # # g a ` k.5 ( 9 4 4 4 4 4 k.l.8.8.9.8.s.h.O.o.a.Z.M.D.M.g.-.( ) 9 5 >.9.# # # # # # # # * d d k k g g g k g =X",
"@X- - * * * @ @ # d g d G f.8 9 ( 9 t t 8 9 h.` # # # # h F f._ 1 7 e e w q 8 6 8 O.>.9.N * * # # * # # @ @ # * - # g g d g g =X",
"OX- % @ * * @ # - g d k k Q 0.8 5 4 4 4 2 u s.B # * * * # # - g V h.k.k.k.k.k.k.h.s.9.N @ & @ @ X X X X X X @ @ # * - - g d g =X",
").- # @ @ * * * - g d k k k D A k z - - - ; m # * # # # # # # # h F F F F F F F C = X @ @ X X X X X X X X X : S & @ * * - * - =X",
").= @ @ @ * * * * d d k k k D Y.Q c g d * # # # # # * # # * # # # @ @ @ @ @ @ @ X X X X X X X X X . . . . . ; G X @ @ @ * - - =X",
").= @ @ @ @ @ # # # g g g k W Q.^ D k # # * & @ @ # # # # * @ @ @ @ @ @ @ @ X X X X X X X . X X X X X X X X X X X X X @ @ * - -X",
").= @ X @ @ X @ # * d d g g k A k g g - * @ @ @ @ @ @ @ @ @ @ X X X X X X X X X X X X X X . X X X X X X X X X X X X X @ @ # - -X",
").= @ X X X X @ # * * g d k - - * * * * @ @ @ X X X X X X X X X X X V ; X X X X X X X X X X X X X X X X X X X X X X @ @ $ % - =X",
"OX= X X X X X @ @ @ - - % & @ @ @ @ @ & X X X @ @ @ X X X X @ X X X + X X X X X X X X X @ @ X X X X X X X @ X X X X @ * * - - =X",
"OX+ X X X . X X X @ @ @ @ @ @ X X X X X X X X X @ X X X X X X @ X X X X X X X X X X @ @ $ $ @ X X X X X @ @ X X X X @ @ * * - =X",
"OX+ X X X . . X X X X X @ @ @ @ X X X X X X X X X X X . X X X @ X X X X V V X X X X @ @ $ $ @ X @ @ @ @ @ X X X X X X @ % # - =X",
"OX+ @ @ X = V X X X X X X X @ @ X X X . . . . . . . . . . X X X X X @ @ S S @ X X @ @ @ @ @ @ X @ $ @ @ = X X X X X @ @ % % g =X",
").= @ # @ = = X + . . . X X X X X . . . . . . . . . . . . X X X X X @ * # # @ @ @ @ @ @ @ # @ X @ @ @ @ X X X X X X @ @ % g g =X",
"'.= @ * @ X X = ; X X X X X . . . . . . . . . . . . . . . X X X X X @ - g d * @ @ # * * # # @ @ @ @ @ @ ; = X X X @ @ * d g g =X",
"@X= & @ @ X X X X X X X X . . . . . . . . . . . . . . . . X X X X X # g g d d - - * * * # # # @ & @ & & G - @ @ @ @ * g d d g =X",
"@X= & @ X X X X X X X X X . . . . . . . . . . . . . . . X X X X X X @ # d d * * * * # * * # # # @ @ @ @ @ @ @ @ & & * * g g g =X",
").= @ X X X X X X X X X . . . . . . . . . . . . . . . . X X X X X X @ @ @ @ @ @ @ @ & # # # - % @ @ X @ @ $ @ @ @ @ & * g g g =X",
").= @ @ X X @ X X X X X . . . . . . . . . . . . . . . . X X X X X X X @ @ @ @ @ @ @ @ @ * * - - - - @ @ @ @ @ @ @ @ @ # d g g =X",
").= @ X X X X X X X X X . . . . . . . X . . . . . . . . + X X X X X X X X X @ @ @ @ @ & - * # g * * # # # * * & @ @ @ * * g z =X",
"OX+ X X X X X X X X X X X . . . . . X X X . . . . . . . C ; X . . . X X X X X X X X @ @ @ * * g * * * * * @ # * @ @ # * * g k =X",
"OX+ X X . X X X X X X X X . . . . . X X X X X X X . . . + + . . . . . . X X X X X X @ @ @ * # * # * * * * & # * * * * * * d g =X",
").+ @ X X X @ X X X X X X X X X . X X X X X X X X X . . . . . . . . . . . . . X X X X @ @ @ * * # # * * * * * * d g g k d f g =X",
").= @ @ X @ $ @ @ X X X X X X X . X X X X X X X X X . . . . . . . . . . . . . . X X X @ @ @ & * * # a a * * * # d k k k x k g =X",
"                                                                                                                                "
};
