/* XPM */
static char *empty[] = {
/* columns rows colors chars-per-pixel */
"64 62 168 2 ",
"   c #000015",
".  c #00001B",
"X  c #030324",
"o  c #080727",
"O  c #0D0D26",
"+  c #03022C",
"@  c #0D0D2C",
"#  c #100E25",
"$  c #100D2C",
"%  c #0E102E",
"&  c #1B1B27",
"*  c #11112C",
"=  c #1B1A2B",
"-  c #010234",
";  c #090731",
":  c #070833",
">  c #0D0E34",
",  c #05043D",
"<  c #0E0E3B",
"1  c #100F35",
"2  c #100F3A",
"3  c #0E1035",
"4  c #0F103C",
"5  c #111134",
"6  c #1C1B33",
"7  c #10113D",
"8  c #1C1B3A",
"9  c #201E34",
"0  c #22213D",
"q  c #0E0F42",
"w  c #0E0E4A",
"e  c #110F42",
"r  c #100F4A",
"t  c #0F1043",
"y  c #0F114A",
"u  c #111144",
"i  c #181544",
"p  c #171843",
"a  c #1C1C44",
"s  c #11124B",
"d  c #161849",
"f  c #1D1D4B",
"g  c #0C0E58",
"h  c #0F1052",
"j  c #0E115C",
"k  c #121353",
"l  c #171854",
"z  c #1D1E53",
"x  c #12145A",
"c  c #12165B",
"v  c #11155A",
"b  c #14145B",
"n  c #13135C",
"m  c #12155D",
"M  c #13145C",
"N  c #13185A",
"B  c #13185D",
"V  c #16185C",
"C  c #15185B",
"Z  c #1A1858",
"A  c #1B1B5C",
"S  c #201F48",
"D  c #201F55",
"F  c #1F204C",
"G  c #1F204C",
"H  c #1E2052",
"J  c #202044",
"K  c #212148",
"L  c #24244A",
"P  c #2E2C49",
"I  c #302E4E",
"U  c #252551",
"Y  c #232353",
"T  c #272853",
"R  c #2B2D55",
"E  c #23245B",
"W  c #292B5F",
"Q  c #2A2C5E",
"!  c #2A2B5C",
"~  c #333351",
"^  c #393952",
"/  c #34345B",
"(  c #0E1461",
")  c #0F1269",
"_  c #121460",
"`  c #111461",
"'  c #141662",
"]  c #121564",
"[  c #161766",
"{  c #131663",
"}  c #181761",
"|  c #151964",
" . c #1B1C64",
".. c #121668",
"X. c #141668",
"o. c #14176A",
"O. c #151869",
"+. c #15196A",
"@. c #1A1D6B",
"#. c #151973",
"$. c #191B72",
"%. c #181D76",
"&. c #171A79",
"*. c #1C1E7B",
"=. c #1E206A",
"-. c #1F2170",
";. c #1D2277",
":. c #1F257C",
">. c #252360",
",. c #252760",
"<. c #262661",
"1. c #292A63",
"2. c #2B2B63",
"3. c #22246E",
"4. c #2C2C6C",
"5. c #313263",
"6. c #3C3C60",
"7. c #252975",
"8. c #25297F",
"9. c #2C2E7D",
"0. c #2A307B",
"q. c #373670",
"w. c #31327C",
"e. c #36387F",
"r. c #414163",
"t. c #47456E",
"y. c #40407A",
"u. c #444572",
"i. c #59597A",
"p. c #1B1E81",
"a. c #2F3282",
"s. c #343681",
"d. c #313485",
"f. c #303589",
"g. c #3B3D8E",
"h. c #3C408D",
"j. c #41428F",
"k. c #494989",
"l. c #5D5E82",
"z. c #52528C",
"x. c #424892",
"c. c #4B4D96",
"v. c #575790",
"b. c #7D7D87",
"n. c #7E7C8A",
"m. c #60629E",
"M. c #6A6C9D",
"N. c #7E7E91",
"B. c #5C5EAC",
"V. c #7C7CB6",
"C. c #858490",
"Z. c #828299",
"A. c #8082B7",
"S. c #9394C7",
"D. c #8F91D6",
"F. c #9E9ED1",
"G. c #B9BCEA",
"H. c #E6E7E9",
"J. c #EAEBEE",
"K. c #ECECEF",
"L. c #EBECEE",
"P. c #E9EBF0",
"I. c #E9ECF0",
"U. c #EFEFF3",
"Y. c #ECECF0",
"T. c #EBECF0",
"R. c #F2F3F4",
"E. c #F5F6F8",
/* pixels */
"I.K r s w w u 4 3 3 4 4 < t t t u u 4 4 < < < < > > > > 3 3 3 > @ @ > > 7 2 e 7 < 4 4 < < t t s k k k k k B ' B B B ' B s w f I.",
"I.S w w E W < 4 3 > > < 4 u u u w < < 4 4 4 < < 2 2 > > > > > > > > @ > 7 2 2 4 < < < t t t u s s s s k k B ' B k B B k t < a K.",
"I.f w s E W 7 < 4 > < < 4 u u t u 4 < < < < < < u u u < < > > > > > > > 3 > > > > U u.< t t t u s s s h h B ' B B B B s t < a K.",
"I.S r s < f p < < < 4 4 u u u w < 4 4 < < < 4 t s s u t < 2 > > 3 > > > 3 > > > > 7 f w u s s s s k k k B j ' X.X.' B k k w U I.",
"I.S e w 4 < 2 2 < 7 4 > < 7 7 < < 7 4 4 4 < 4 u s s s u t < 7 < > > > > > @ @ > 3 < < u u s s y s B B ' j d.f.) $.3.4.2.A w U R.",
"K.8 < < 4 > > < 2 < < F 7 < 4 < < 7 7 4 t t u u s s u u u 4 < < 3 > > > > > > > > 4 4 u u u t y k B ' +.X.;.:.#.$.d.A.M.<.s a K.",
"K.8 < 3 > > > < > a 7 U 7 > 3 7 7 < < t w u u u t u w u u t < < 3 3 > > > > 3 3 3 3 < < t u u s s B ' X.+.X.#.#.*.j.G.S.4.k f K.",
"K.8 > 3 3 > > > > / u > < > 3 4 4 < 7 u e u u w < 4 u u u u t 4 4 > > > > > 4 4 > > < < w t u s k B ' X.+.+.#.p.*.d.m.z.3.B z I.",
"K.6 @ > > > > > > > < u w < < 3 3 3 : < u 7 3 3 > 4 w s s s u w < < < > > > 4 4 < < t u w w s k ' X.X.@.s.9.*.p.*.@.3.@.w.A z I.",
"K.6 @ > > > < > > 4 4 < u 4 4 4 4 3 R u < 7 > > 4 4 u s u u t t u 7 < > > < 7 7 4 7 u u u s s k B ( +.3.D.B.#.p.#.O.O.'  .k z I.",
"K.6 @ 5 3 4 < > > > > 4 4 u u u < > l.J @ > @ > < 4 7 > < t t t u u 4 < < < 4 t t u u s s s k k B 9. .=.c.g.*.&.X.' B B B k z I.",
"K.6 @ > 5 4 2 > > 3 > > < 4 e t < F 5 @ @ @ @ > < 7 > R f < u u u u t w u w u u t t s s k k B B B @.O.O.B 9.8.#.X.' j B B h z I.",
"K.6 @ @ @ > 2 7 4 3 3 > < < t u 4 a 5 @ @ @ @ > < 4 > R a < u u u s u w u u u s s y s k B B B ' X.' ' B ' ' +.X.' O.O.B B w z I.",
"K.6 @ % @ > < 7 7 < 4 4 < 4 t t 7 > @ @ @ @ > > 4 4 > > < 7 u u w u u w u u u u s t s k k k B ' X.' ' B B ' j X.' O.w.' B y H I.",
"K.= @ @ @ > < 2 7 < < < 4 4 < < > > > @ > > > > > 4 < 4 < 4 < < 4 < < < 4 4 4 u t < t s s k B B ' B B B B ' ( X.' B B ' B w F I.",
"K.= o @ @ > < > 4 4 4 < < < > > 3 > @ > > > > > > > > < < < > < 4 < < 4 4 < < 4 < < 4 u s s k B B B B B B B ' ' ' B B B k w f I.",
"K.= o @ @ % 3 3 > 4 4 < 2 2 > > > > > > @ @ 3 > > 3 3 > 4 > > 3 < 4 4 t 4 > > 3 4 < 4 u u s s k B B ' ' ' ' ' ' B B B k s t f I.",
"K.= @ 1 > 3 3 > 3 > > > > > > > @ @ @ @ > > > 3 4 4 4 7 u 7 < < < 4 u u t < < 4 < < < < u u s k B ' ' ' +.+.X.' B k k k y w f I.",
"K.= @ 1 @ @ > > > > > > > > @ @ @ @ % @ > > > < u u w t u u u t w w s s s u w < < < 4 t t t u k B B ' ' X.X.X.' B k k h s w z I.",
"K.= o @ @ @ @ > @ @ @ @ @ @ @ @ @ @ @ > 3 < < t t s s s y s s s r s k k s s u u 4 4 t u < w u s k B B ' ' a.@.j B k k k k s D I.",
"K.& o @ o @ @ @ @ @ @ @ @ @ @ @ @ @ @ > 4 f w u s s s s s s s k B B B k k s u u t t t t t t u s y k B B ' ' 7.3.h k k k k s D I.",
"K.& o $ o o o @ @ @ @ @ 1 @ @ @ @ > 3 > 7 u w s s s s s k k s k B B B B k s s s s u u u u t t y s k B j B j x.h.g B h k k y z I.",
"K.= o $ @ o @ @ @ @ @ 1 o @ @ @ > 1 > 4 u s s s u s s s k k k s s k k k k k s s s s s s t t s s k k B  .' ' ' X.O.B h k k y z I.",
"K.= o $ @ @ $ @ @ @ @ 5 ~ 5 @ > 4 7 7 4 u u s s u s s s k k s t t y s k k k k s s s s s y y y s k k B 3.' ' ' +.X.' B k k w z I.",
"K.= o $ @ @ @ > @ @ @ @ i.8 @ > 4 4 4 4 < u s r t t u s k s t t s s s s s k k s s s s s w t t s k k B B O.' ( ' X.X.' B B k z I.",
"K.= o @ @ @ @ @ @ @ > > @ > > < 4 4 < > > < w u u t u s s s s t s s s s y y s s s s u u u s y s s k B ' ' ' +.+.X.X.' B B k z K.",
"K.= o @ @ @ @ @ @ @ > > 7 4 < 4 4 < < > > < t u u t u s y y u s s s s s s s s s s s u u u s y s k k B B ' ' ' X.X.X.' B B k z I.",
"K.= o @ @ @ @ > @ > > 4 4 < < < 7 u < < 3 > < 4 u u u u w w t s k k k k k k k y s s z 5.E s k k k k B ' ' +.' X.+.X.B B B k H I.",
"K.= o @ @ @ @ > @ > > 4 4 < < < u u t 4 < < 4 < < w w u t u u w w k k B B B B k s s 2.F.v.l B k k B B ' ' +.X.' +.' B k k w f I.",
"K.= o @ @ @ > < > < 4 u u u u u u u u u 4 < < < < w w 4 4 u w y.<.w k k B B B k s s 2.V.k.B B B B B ' ' ' +.O.O.' B k k k w a K.",
"K.= o > > > 1 7 < w u s w t s u u s r s u 7 4 7 u u w < < < w E z s s s s s s s s s z  . . .' j j ' O.' ' ' '  .B B k s k e a K.",
"K.= @ > > > 2 u u t s s 2.l s s u s s t t u u u u u t 4 < 4 u < w t s s s t t t w w k B ' ' B  . .' ' ' ' ' ' B k k s u u < a K.",
"K.6 X @ 4 < u u u t s s E k w s s u u t t t t u 4 4 4 < < 7 < < t t t s s s y t d 2.k B ' B h @.@.j B B B B B B s t u u u < a I.",
"K.0 J > < 4 7 u u u s s w s s s s t w u u t u 4 4 < < < < < < 4 u u u s s s s y k A h k k k k h k B k B k k k k s t u u u < a I.",
"H.P t.> 4 4 4 u t t u u u u u t u u u u 7 4 4 < > > 4 4 < < u u u u s s s k k k k y s s s s s k k k k k s s s s t t t e u < a K.",
"K.8 ; 7 < < < < 4 4 4 < 4 u t < < 4 4 4 4 > < > > > 3 4 < 7 4 t t u u s s k k k k s t t t u u s s s y s s y s u u w < w u < f K.",
"K.8 < 7 < < 3 < > < < > < < 4 < > > 3 > 3 > > > > > > 4 < < 4 w w w t t s s k k s t t 4 7 4 u u u u u u u w u u w u u w u w f K.",
"K.8 < 4 < < 3 > > > 4 < < < 4 < > > > > > 3 > > > > > > < K < u u u u u u s s u u t < 4 4 < 4 w < < w u u u u u u u w u s t F K.",
"K.8 < 7 < < 3 > < < 7 u u u u u 3 > > > > > > > 1 1 2 < 2 u 2 u u u u u t t t u 2 < < < < < 4 < < < < 2 e e u w U u u u s t f K.",
"K.8 < 4 < 4 3 > < 4 u u u u s u 4 < < > > < < 4 7 4 7 7 7 < 7 w u u u < < < < < > > > > < 4 4 < 2 2 2 > < < < u u < u u u w f K.",
"K.8 < 4 4 3 > < < t u u s s s s u t < 4 < < < 4 4 4 4 < < < < t u w 4 < < < < > > > @ > 3 3 3 > > > @ 3 > > @ > 4 4 u u e < f I.",
"K.8 < > > 3 3 4 7 u t s s s s s s u u u 7 < 4 4 4 4 < < < < < 4 4 4 7 4 7 2 2 1 3 @ @ > > > @ @ @ @ @ @ @ @ 8 K > > 4 u 7 < a I.",
"K.8 > > > 3 7 2 4 t t s s s z z.q.s s t 7 7 4 4 4 4 4 < < 4 4 < 4 7 7 > 5 1 > > @ @ @ @ @ @ @ @ o o o o % X ~ 6.o 3 > < 7 > a I.",
"K.8 > > > > 1 2 < < t y y s z S.z.2.z < 4 4 3 > > > 7 > > 7 > > > > > > > > @ @ @ @ @ @ @ @ o o @ o o o @ @ @ @ @ @ @ > 3 > a K.",
"K.8 > > > > > > < < t t t u d W U u u u 4 > > > > > > > > 1 > > @ @ @ @ @ @ @ @ @ @ @ @ @ @ o @ @ @ @ @ @ @ @ @ @ @ @ > > > a I.",
"K.8 > @ @ @ @ 1 < 7 7 u 4 F 7 4 7 4 7 7 4 > > > > > > @ > > > @ @ @ ~ 0 o @ @ @ @ @ @ @ @ @ @ @ @ @ @ @ @ @ @ @ @ @ > > 2 > a I.",
"K.6 > @ @ @ @ @ > < 4 7 4 7 > > 3 > > > > > > > > > @ @ @ % % @ @ @ 5 5 @ @ @ @ @ @ @ @ > > @ @ @ @ @ @ @ @ @ > @ @ 3 4 7 < a I.",
"K.6 @ @ o @ @ @ > > > 5 > > 3 > > @ @ @ @ @ @ @ @ $ @ @ @ @ @ 1 > @ @ @ @ @ @ @ @ @ > > 1 1 > @ @ > > > > > @ @ @ @ > < 7 < a K.",
"K.6 @ @ o @ X @ @ @ @ @ > > > > @ @ @ @ @ @ @ @ @ @ @ o @ @ @ 1 > @ @ @ K K @ @ @ @ @ > 1 1 @ @ > > > > > @ @ @ @ @ @ > 7 < a K.",
"K.6 > 3 @ @ P @ @ @ @ @ @ > > > @ @ @ o o o o o % # % # @ @ @ @ @ @ @ o 6./ o 3 @ @ > > 5 > @ @ > 5 > > 1 @ @ @ @ @ > > 4 < a K.",
"K.6 > 4 3 5 9 o @ @ @ @ @ @ @ @ @ @ o o # o # o # # # o o @ @ @ @ @ > 2 < > 3 > > > 1 > 2 1 > > > > > > @ @ @ @ @ @ > < 7 < a K.",
"K.6 > 4 3 > o * 0 o @ @ @ @ @ @ o o o o # # # # # # # o @ @ @ @ @ > < e u u 4 < < < < < < < > > > > > > 5 @ @ @ > > < 4 u < a I.",
"K.6 > 4 3 > @ @ * @ @ @ @ o o o o o # # o o o # o o o o o @ @ @ > > 2 u u u 7 4 t 4 4 4 < t < > 5 > @ 5 r.> > > > > 4 t u w f K.",
"K.6 > 3 % @ @ @ @ * @ @ @ o o o o o # # o o o o o o o o @ @ @ @ @ @ > 4 u u 4 < 4 4 < 7 u t < > > > > > > 5 < 5 > > < t u < a K.",
"K.6 > % % @ > @ * @ @ @ @ o o o o o # # o # @ o o o o @ @ @ @ @ @ @ > > < 2 < < > > > 4 < 4 4 > > > @ > > 2 < > 3 > < t u < a K.",
"K.6 > > @ @ @ @ $ @ @ @ @ o # # o o # # # o o o o o o o @ @ @ @ @ @ > > > > > > > > > > 2 2 u u 7 2 < > > > < > > > < < u w f I.",
"K.6 @ 1 @ @ @ @ @ @ @ @ @ o # # o o o o o o o o o o o o o @ @ @ @ @ @ @ @ > > > > > > 5 7 4 w 7 7 4 3 3 > 3 3 3 3 3 3 < 7 4 F I.",
"K.= @ @ @ @ @ @ @ @ @ @ @ o o # o o # @ @ o o @ o o # . ^ 0 o @ o @ @ @ @ @ @ @ > @ > > > < 4 t w 4 4 4 < < < < > > < < u w K I.",
"K.6 @ @ @ @ > @ @ @ @ @ @ o o o o @ % * @ @ @ @ @ @ o o 6 * o o o o o o @ @ @ @ @ > > > > < < < 4 4 7 7 < < < 4 4 4 4 w t w f I.",
"K.9 @ 5 * 5 5 5 5 5 * * * * * * * * * * * * * * * * * * o o * * * * * * * * * * * 5 5 5 7 7 7 7 7 7 7 7 7 7 7 u u u u s s u F I.",
"K.o . . . . X X . . . . .           . . . . . . . .                             . . . X X X X o o o o o o o o - - - , , , - 4 I.",
"R.C.n.n.n.n.n.n.n.n.n.n.n.n.n.n.b.b.n.n.n.n.n.n.n.n.n.b.b.b.b.b.b.b.b.b.b.b.b.b.b.n.n.n.n.n.n.n.N.N.N.N.N.N.N.N.N.N.N.Z.Z.N.Z.E."
};
