/* XPM */
static char *exit[] = {
/* columns rows colors chars-per-pixel */
"64 63 186 2 ",
"   c None",
".  c #040403",
"X  c #080807",
"o  c #0B0B0A",
"O  c #131313",
"+  c #181817",
"@  c #1C1C1C",
"#  c #0D0D25",
"$  c #0D0D2C",
"%  c #0F102C",
"&  c #131327",
"*  c #13132C",
"=  c #1E1E2B",
"-  c #1D1D23",
";  c #0D0E34",
":  c #0E0F3A",
">  c #100F36",
",  c #100F3B",
"<  c #0E1036",
"1  c #0F103C",
"2  c #131433",
"3  c #1B1B34",
"4  c #12123D",
"5  c #16183E",
"6  c #1C1C3B",
"7  c #232323",
"8  c #24242B",
"9  c #2C2C2C",
"0  c #2E2F34",
"q  c #23233C",
"w  c #292937",
"e  c #333333",
"r  c #323239",
"t  c #3B3B3C",
"y  c #0E0F41",
"u  c #100F41",
"i  c #0F1042",
"p  c #0F114B",
"a  c #111244",
"s  c #1C1D44",
"d  c #12134B",
"f  c #17184F",
"g  c #1B1B49",
"h  c #171749",
"j  c #0D0F59",
"k  c #0F1257",
"l  c #111353",
"z  c #171852",
"x  c #191951",
"c  c #12145B",
"v  c #17195D",
"b  c #1A1B5A",
"n  c #1F2045",
"m  c #1F205E",
"M  c #232344",
"N  c #292942",
"B  c #2B2B4A",
"V  c #242448",
"C  c #2F314D",
"Z  c #333445",
"A  c #3D3D42",
"S  c #32324E",
"D  c #373848",
"F  c #3B3B4B",
"G  c #222353",
"H  c #272851",
"J  c #2B2C52",
"K  c #202159",
"L  c #2D2E59",
"P  c #2F305A",
"I  c #343553",
"U  c #3B3C53",
"Y  c #35365C",
"T  c #3B3C5D",
"R  c #131562",
"E  c #131662",
"W  c #151863",
"Q  c #1A1A62",
"!  c #141669",
"~  c #121569",
"^  c #15196A",
"/  c #191D6C",
"(  c #161A72",
")  c #1A1D73",
"_  c #171B79",
"`  c #1A1D7B",
"'  c #1F216F",
"]  c #1C2172",
"[  c #1E227C",
"{  c #222567",
"}  c #292B64",
"|  c #25266B",
" . c #282A6D",
".. c #2F3067",
"X. c #363761",
"o. c #393A66",
"O. c #34346D",
"+. c #3A3B67",
"@. c #212371",
"#. c #2B2D72",
"$. c #25287C",
"%. c #333574",
"&. c #3B3D75",
"*. c #32347B",
"=. c #3E3F7B",
"-. c #3F4055",
";. c #3F406D",
":. c #444444",
">. c #44444A",
",. c #4B4B4B",
"<. c #424255",
"1. c #4D4D54",
"2. c #46465B",
"3. c #4B4C5B",
"4. c #4F5057",
"5. c #545454",
"6. c #53535B",
"7. c #5B5B5B",
"8. c #444465",
"9. c #4D4E63",
"0. c #44456A",
"q. c #4B4B6A",
"w. c #47486B",
"e. c #4F5061",
"r. c #545463",
"t. c #5B5B65",
"y. c #54556A",
"u. c #5C5C6B",
"i. c #494B7D",
"p. c #444674",
"a. c #565773",
"s. c #575878",
"d. c #5F6070",
"f. c #646464",
"g. c #62626B",
"h. c #6A6A6A",
"j. c #646572",
"k. c #747474",
"l. c #737379",
"z. c #7C7C7C",
"x. c #1B1E81",
"c. c #3B3D87",
"v. c #353889",
"b. c #565780",
"n. c #4B4D93",
"m. c #505192",
"M. c #676885",
"N. c #7E7F83",
"B. c #7E7F8B",
"V. c #696CAA",
"C. c #7476B0",
"Z. c #807F8A",
"A. c #7F808C",
"S. c #7F8191",
"D. c #848485",
"F. c #80818D",
"G. c #8C8C8C",
"H. c #808191",
"J. c #8D8D93",
"K. c #818399",
"L. c #949494",
"P. c #9B9B9B",
"I. c #9A9AA7",
"U. c #999AA9",
"Y. c #999BAB",
"T. c #8082B2",
"R. c #A3A3A3",
"E. c #A7A7AA",
"W. c #ABABAC",
"Q. c #A2A3B2",
"!. c #AFAFB3",
"~. c #B3B3B3",
"^. c #BBBBBB",
"/. c #8C8EC5",
"(. c #999BC8",
"). c #BFBFC6",
"_. c #C3C3C4",
"`. c #CCCCCD",
"'. c #C5C6C8",
"]. c #D2D2D2",
"[. c #DBDBDD",
"{. c #D5D5DD",
"}. c #DCDCE4",
"|. c #E4E4E4",
" X c #ECECEC",
".X c #F1F1F1",
/* pixels */
"                                                                                                                                ",
"K.f f f f i y : < < < : 1 i i a a i 1 1 1 : : : : : : : : < < $ $ $ : : > > 4 4 : : : : : 1 i p f f l l l c R R c c c c f a a Y.",
"K.f f f ..x : : < : : : 1 a a a i : : 1 1 : : : 1 1 1 : : : : : $ $ : : : > 1 1 : 4 a 1 y i i p f f f l l l c c c l c l p a a Y.",
"K.f f f K n 1 : : : : 1 1 a a i 1 : : : : : : y a a a 1 : : : : : : : : < : : : : s +.a i y i f f f f k k l c c c c c l f i a Y.",
"K.h f a y f 4 : : 1 1 1 4 a a : : 1 : : : : 1 a f f a a : : : : < : $ $ $ $ : : : 4 h a a f f f f l l c c c ^ ~ ~ ^ Q b l f s Q.",
"K.a a : : : 1 : : 1 : : : 1 1 : : 4 4 1 1 : i a f f a a 1 : : : : : $ $ $ $ : : < 1 1 a a f a i f l c R R $.v.^ ( @.*.%.K f s Q.",
"K.4 : : : : : : > > 4 G 1 : : : : 1 1 1 i a a a a a a a a 1 : : < < : $ : : : : : 1 1 1 a a i i f l R ~ ~ ( ] ( ) *.C.T.O.x h Y.",
"K.4 1 < < : : : 4 f 4 f 1 : < 1 1 : 1 i y a a a 1 y y a a 1 1 : < : : : : : < < : < < : 1 a a f l c R R ^ ^ ( _ _ v./.(.=.Q f Y.",
"F.2 : : : < : : 2 H 4 : : : : 1 1 1 : u a a i 1 : : y i a a i 1 : : : : : : 1 1 : : : : i i a f l R R R / / _ x.x.$.n.m.#.Q x Y.",
"A.2 : : : : : : : : : 1 1 : 1 < < < : > a 4 < : : : i f f f a i 1 : : : : : 1 1 : 1 1 i i a f l c R W / c.c.[ x._ ) ' ' @.| z Y.",
"F.2 : : : : : : : : : 1 4 4 1 1 : 4 Y 4 : : : : : : y a i i i i i 1 1 : : < 1 1 1 1 a f f f l l c R ^ @.V.V.$._ ( W W R R c z Y.",
"F.* $ > > : : : : : : : 1 4 a i : 4 w.5 $ $ $ : : : : : : y i i a a 1 : : : 1 i i i a f l k l l c #./ &.Z D U * * 3 Z K c c z Y.",
"F.* $ : > > : : : : : : : 1 i i 1 M 2 $ $ $ $ : : 1 < J f : a f f a y y i i a f i i p l c l l l R ^ R #.p.>.O e e @ 7 f c c h Y.",
"A.* $ : : : > 4 : < : : : : i i 4 4 % $ $ $ $ : : : : s a J I I I I I S S S I I I I I Y Y +.v c ~ ~ R c Q 8.0 t 9 O 7 f c l h Y.",
"B.* $ $ : : : 4 1 : 1 : 1 1 1 1 1 : $ $ $ $ $ M B J J J L 2.O o o o o o o o o o o o o o X 1.;.%.*.*.| c c { &.8 . X e J c l h Y.",
"A.& $ $ $ : : 4 1 : : : 1 1 : : < : : : : : 5 6.>.>.>.>.>.7.k.k.f.e 9 e h.f.>.>.>.e 9 9 9 A >.>.>.1.s.R R c { w.T 8.r a c l h Y.",
"B.& $ $ $ < < < 1 1 : : : : : : : $ $ $ $ C y.4.7 @ O o . t W.E.G.,.>.,.E.L.h.f.7.,.,.,.1.e o o o o u.b.s.i.W W R  .F a l p f Y.",
"B.* $ $ : < < < < < 1 1 s s s s 5 5 5 2 5 2.7 D._.E.k.t 7 ,.W.h.>.7 @ 9 P.L.f.e e f.f.f.f.5.>.>.>.>.9 + + u.*.W c c O.b l f f Y.",
"B.* $ $ : : : : < : : M u.1.1.1.1.1.r.I t.1.9 L.`.~.L.k.t >.h.k.k.f.t 9 P.D.>.e t 5.,.>.f.f.5.5.5.5.t 7 7 >.u.i.j k l l f p f Y.",
"B.* $ $ $ $ : : $ $ B u.>.o . X o X >.j.0 O >.L._.W.W.W.f.t 7 z.W.W.7.7 L.k.7 t >.>.e 7 7.f.f.h.h.f.5.,.,.9 @ M.&.z f f f f f Y.",
"A.* # $ $ $ $ $ $ 2 u.e G.P.>.,.5.5.>.9 @ @ 7 ,.f.7.D.W.E.z.>.5.5.t 7 @ 7 e >.9 9 >.>.>.,.t 9 7.f.,.7.f.f.,.t e <.} f f l l h Y.",
"A.& # # $ # $ $ B u.5.O P.^.,.h.L.G.k.,.5.7.7.>.t e 7.z.G.D.h.,.t ,.,.,.7 7 e 9 9 t >.>.t e 9 >.1.5.7.7.h.7.>.o = } p l l c h Y.",
"A.& # # $ # $ q y.9 o 7 P.~.,.P. X].`.`.`.].].f.@ 7 @ 7 t f.W.,.e E.W.E.7.0 . e >.7 t >.7 e >.8 e f.5.,.f.7.>.o q p.b l l l f Y.",
"A.& # $ $ # 3 g.t @ O @ >.5.,.f.k.k.h.k.^.].].~.P.P.P.L.>.e ,.D.W.]._.W.L.h.e 7 e z.G.G.D.D.G.D.D.L.L.G.L.L.D.>.r >.w.l l l f Y.",
"Z.& # $ $ $ 5 4.. e e @ 7 9 t ,.7.7.7.f.P.~.~.~.^.^.^.~.>.7 7 W.}.[.`.~.~.G.>.O 9 W.E.P.E.E.E.E.E.E.E.E.R.P.L.5.0 . Y l f f f Y.",
"Z.& # $ $ $ 5 6.O W.L.7 5.5.o k.`.`.`._.h.,.,.,.,.,.,.,.>.>.>.E. X].`.`.~.D.>.O 9 W.k.,.h.h.h.h.h.h.h.h.h.7.,.,.e o X.c l l z Y.",
"Z.& # $ $ $ 2 r.6.h.>.o 9 9 . z.`.G.E.`.E.G.J.L.L.G.L.G.5.7.G.D.L._.].`._.G.e t >.7.7.7.f.7.5.5.5.5.5.7.f.7.5.,.e o X.R c c l Y.",
"F.& # $ $ $ $ : 2.t O O . . O N._.f.z._._.`.].`._.].`.^.h.z._.g.6.!._._._.G.9 7.7.7 ,.f.f.5.,.,.,.>.>.,.f.h.f.,.e o X.R c c z Y.",
"A.& # $ $ $ $ $ q -.U y.e 7 J.~.`._.L.7.7.z.`.D.f._.P.7.E._.`._.~.z.5.e e 7.P.E.L.7.5.>.9 t f.f.7.,.>.,.f.h.f.,.e o Y c c l h Y.",
"A.& # $ $ $ $ : : : : L r 7 E._.].].P.>.>.h.`.P.D.].!.z.^.].`.!.P.,.5.7.t 5.D.E.E.D.f.,.t ,.7.7.7.5.5.5.f.h.f.,.e o Y l l l a Y.",
"B.& $ $ $ : : : : 1 G q.t 9 E.^.`.].P.,.,.h.`.].]..X|.].].`._.l.5.7 z.`.z.7.,.G.W.W.D.h.h.7.,.,.5.f.f.f.h.h.f.,.e o Y l l f a I.",
"B.* $ $ : : : > 1 a u.A l.J.W.L.G._._.W.W.~.`.[. X[.].].].^.D.>.>.N.!.`.k.f.7.7.k.W.E.L.h.f.7.7.7.5.5.5.f.h.f.5.e o Y f f f a I.",
"F.* $ : : : y a i a e.o P.`.P.D.z._.].].].].].|.|.].`.`.^.P.5.A 6.`.].`.G.k.h.5.7.L.E.E.z.k.h.h.f.,.>.A 5.7.f.>.9 O I a a a a Y.",
"Z.* $ : 1 1 a a f K y.o P.^.k.G.W.`.].`.].[..X[.].`.].`.D.5.7 G._.].].].].W.h.h.f.,.D.W.W.G.f.f.h.f.e @ @ >.f.+ o 7 U a a u a Y.",
"B.N M : 1 1 1 y o.2.f.D.W.W.h.G.W.^.^.^.k.h.P.^.].].~.G.,.,.D.z.z.z.z.z.h.h.h.h.f.7.G.W.W.R.G.k.7.t t e e t e o - t.T i a i 4 Y.",
"B.S J : 1 1 1 : 8.7 ,.].~.P.k.L.W.P.P.L.9 O 7.P._._.L.7.e f.'.g.5.5.,.>.7 e 7.f.h.h.G.E.W.W.W.k.,.7 t ,.>.e @ . = L 4 1 i i a Y.",
"K.2 : : : : : 1 w.7 ,.].G.k.E.W.E.t 9 9 o o 7 5.k.k.,.9 P._.`.`.).].G.>.7 @ 7 5.h.h.h.k.E.W.E.>.9 >.>.>.7 - @ . = H : : y i a Y.",
"S.2 1 : : : 5 r.6.h.D.^.L.G.W.G.f.9 O O . . @ e t >.5.k.^.].].].].{.L.>.7 @ @ ,.7.7.f.h.G.P.E.t 9 >.t e @ @ @ . = J : y i a a Y.",
"S.4 : : : : n 6.O ~._.W.W.E.W.7.@ @ @ O O O @ o o @ k.].`.`.`.`.].].G.>.9 7 7 A ,.>.7.f.f.D.E.t 9 >.9 @ @ @ @ O r J y a a f f Y.",
"S.4 1 1 1 < n 1.O P.~.W.f.t t @ . . A y.e.6.O 7 >.D.E.~.~.^.].].^.1.e 9 P.W.W.k.7.,.,.5.f.k.k.0 @ 7 7 @ @ O O g.y.K i a a f a Y.",
"K.4 4 : < : n 5.o h.G.L.t O O 9 t t 7.2.-.2.7 >.k.E.W.W.P.E.~.~.P.t t 5.^.].].P.k.t e e ,.,.,.7 @ O O O O 9 ,.y.: : a a i a a Y.",
"F.4 > : < : n 6.X @ t h.7 . X 6.q.w.r.o o @ >.D.W.W.W.W.k.h.h.h.h.f.G.~.`.].].].E.o . . . . . @ @ X . . . 6.T s : 1 4 4 a i a Y.",
"A.4 : : : : 5 u.u.7 O 9 r.r.u.t.r r t 0 9 >.D.P.E.D.z.D.L.L.L.L.L.L.h.>.,.5.5.5.>.O O O O O @ 7.6.6.6.6.6.r.s J : : 1 1 4 4 4 Y.",
"A.2 : : : < < 1 q.,.7 9 q.o.a.1.o o 9 7.5.h.E.E.P.k.k.k.G.L.L.L.L.L.,.. . . . . O t t t t t >.2.* * * * * $ 5 Y $ $ : : 1 4 4 Y.",
"A.2 : : : : : : f 8.8.w.P q.7 0 >.>.h.E.E.L.k.h.k.E.W.E.e o O O O O O @ @ @ @ @ t r.<.<.<.<.<.B # $ # $ $ $ $ $ $ $ $ : : 1 4 I.",
"A.2 : $ $ : $ : : : y y i w.@ @ 7 7 7.W.W.L.t e t 7.7.7.7 o o o o o t t.6.6.6.6.f.q # $ $ # # $ $ $ $ $ $ $ $ $ $ $ $ : : : 4 I.",
"A.2 : $ $ $ $ : : 1 4 a a a.t O . . >.E.E.z.o . . . . . 7 9 9 9 9 9 t.S 5 5 5 5 3 * $ $ $ $ $ $ $ $ $ $ $ $ $ $ $ $ $ : > > 4 Y.",
"F.2 $ $ $ $ $ $ : : 4 4 : I d.1.O + @ 7 7 7 @ + O O O 7 h.r.r.r.r.r.2.* $ $ $ $ $ $ $ $ : : $ $ $ $ $ $ $ : $ $ $ $ : 1 1 i 4 Y.",
"F.* $ $ $ # # $ $ : : : : : 5 6.0 r 8 o o @ r r r r 0 A 2.$ $ : $ $ $ $ $ $ $ $ $ $ $ : : > : $ $ $ $ $ : $ $ $ $ $ : : 1 1 4 Y.",
"F.* $ $ $ # # $ $ $ $ $ $ : 2 q M M 6.7 7 >.U q q q q q 3 $ $ : $ $ $ $ B B $ $ $ $ $ : > > : $ : : : : : $ $ $ $ $ $ : > : 4 I.",
"F.* : : $ 2 B # $ $ $ $ $ $ : $ $ $ F A Z >.3 # # # # # # $ $ : $ $ : : J J $ $ $ : : : : : : $ : > : : < $ $ $ $ $ $ : > > 4 Y.",
"A.2 : : : 2 2 $ * # # # $ $ $ $ $ # # # # # # # # # # # # $ $ $ $ $ : 1 : : : : : : : : : : : $ $ : : $ $ $ $ $ $ $ : : > a a Y.",
"S.2 : : : $ $ 2 5 $ $ $ $ $ # # # # # # # # # # # # # # # $ $ $ $ $ : 4 a i 1 : : : 1 1 : : : : : $ $ $ 5 2 $ $ $ : : 1 i a a Y.",
"K.2 < : : $ $ $ $ $ $ $ $ # # # # # # # # # # # # # # # # $ $ $ $ $ : a a i i 4 4 1 1 1 : : : : < : % < I 4 : : : : 1 a i i a Y.",
"K.2 < : $ $ $ $ $ $ $ $ $ # # # # # # # # # # # # # # # $ $ $ $ $ $ : : i y : : 1 1 : 1 1 : : : : : $ : < < : : < : : 1 a a a Y.",
"A.2 : $ $ $ $ $ $ $ $ $ # # # # # # # # # # # # # # # # $ $ $ $ $ $ : : : : : : : : : 1 : : > > : : $ $ : > : : : : < 1 a a a Y.",
"A.2 : $ $ $ $ $ $ $ $ $ # # # # # # # # # # # # # # # # $ $ $ $ $ $ $ : : : : : : : : : 1 1 4 4 4 1 : : : : : : : : : : i a a Y.",
"A.2 : $ $ $ $ $ $ $ $ $ # # # # # # # $ # # # # # # # # * $ $ $ # $ $ $ $ $ : : : : : < 4 1 : a 1 1 : : : 1 1 < : : : 1 1 a h Y.",
"F.* $ $ # $ $ $ $ $ $ $ $ # # # # # $ $ $ # # # # # # # S 5 $ # # # $ $ $ $ $ $ $ $ : : : 1 1 4 1 1 1 1 1 : : 1 : : : 1 1 a f Y.",
"F.* $ $ # $ $ $ $ $ $ $ $ # # # # $ $ $ $ $ $ $ $ # # # * * # # # # # # $ $ $ $ $ $ $ : : < : 1 : 1 1 1 1 < : 1 1 1 1 1 i i a Y.",
"A.* : $ $ $ : $ $ $ $ $ $ $ $ $ # $ $ $ $ $ $ $ $ $ # # # # # # # # # # # # # $ # $ $ : : : < 1 1 : 1 1 1 1 1 1 1 i a a i i a Y.",
"A.2 : : $ : : : : $ $ $ $ $ $ $ # $ $ $ $ $ $ $ $ $ # # # # # # # # # # # # # # # $ $ : : : < 1 1 : y y 1 1 1 : i a f f l f a Y.",
"                                                                                                                                "
};
