/* XPM */
static char *player[] = {
/* columns rows colors chars-per-pixel */
"64 63 246 2 ",
"   c None",
".  c #020101",
"X  c #090909",
"o  c #181817",
"O  c #111709",
"+  c #321E09",
"@  c #2B1A12",
"#  c #3B240B",
"$  c #372918",
"%  c #2C3217",
"&  c #0D0D25",
"*  c #0D0D2C",
"=  c #131326",
"-  c #13132C",
";  c #0D0E34",
":  c #0E0F3B",
">  c #0E003B",
",  c #13003D",
"<  c #1B003C",
"1  c #100F3B",
"2  c #130C38",
"3  c #0E1036",
"4  c #0F103B",
"5  c #141434",
"6  c #12123D",
"7  c #1A1A3A",
"8  c #100F29",
"9  c #23003B",
"0  c #290339",
"q  c #370337",
"w  c #39153A",
"e  c #1E2633",
"r  c #272727",
"t  c #242539",
"y  c #393635",
"u  c #39302A",
"i  c #1D2312",
"p  c #56340A",
"a  c #462B0F",
"s  c #64380B",
"d  c #723F0A",
"f  c #493429",
"g  c #493933",
"h  c #583D3A",
"j  c #4E3623",
"k  c #623F37",
"l  c #394F18",
"z  c #3B4C22",
"x  c #3E6316",
"c  c #4B4D13",
"v  c #774813",
"b  c #4E7D1C",
"n  c #4A731C",
"m  c #507F1D",
"M  c #50731A",
"N  c #48671B",
"B  c #56433A",
"V  c #4C5030",
"C  c #68493A",
"Z  c #714D3C",
"A  c #72513D",
"S  c #6F5233",
"D  c #57762B",
"F  c #59683B",
"G  c #52702D",
"H  c #637B38",
"J  c #696E30",
"K  c #0E0F41",
"L  c #0C0E4B",
"P  c #0F1042",
"I  c #0F114A",
"U  c #111244",
"Y  c #12134B",
"T  c #191A49",
"R  c #0F1257",
"E  c #111353",
"W  c #12145C",
"Q  c #181A54",
"!  c #130D42",
"~  c #281845",
"^  c #282747",
"/  c #382A49",
"(  c #32334C",
")  c #272755",
"_  c #383656",
"`  c #2D3251",
"'  c #131663",
"]  c #141965",
"[  c #14176A",
"{  c #15196A",
"}  c #1A1C68",
"|  c #181B76",
" . c #0F1565",
".. c #1E2275",
"X. c #262876",
"o. c #31326E",
"O. c #1E2046",
"+. c #513447",
"@. c #623C59",
"#. c #374258",
"$. c #494344",
"%. c #5A4A44",
"&. c #5C5547",
"*. c #484859",
"=. c #564F56",
"-. c #694745",
";. c #744A43",
":. c #7A4E4C",
">. c #734A49",
",. c #69544C",
"<. c #7A5C4B",
"1. c #765645",
"2. c #6A5954",
"3. c #795955",
"4. c #796556",
"5. c #6C7151",
"6. c #5A5967",
"7. c #484964",
"8. c #675769",
"9. c #656467",
"0. c #7A6864",
"q. c #746C76",
"w. c #787478",
"e. c #72746A",
"r. c #5C6764",
"t. c #885012",
"y. c #8C5D2A",
"u. c #835758",
"i. c #856A5B",
"p. c #826657",
"a. c #936F56",
"s. c #896966",
"d. c #8B7163",
"f. c #8E7569",
"g. c #877768",
"h. c #92786B",
"j. c #8A7976",
"k. c #977A75",
"l. c #916B6C",
"z. c #A27E7F",
"x. c #B56B64",
"c. c #9A6260",
"v. c #51801E",
"b. c #4F801C",
"n. c #558222",
"m. c #5C8827",
"M. c #67892B",
"N. c #668A38",
"B. c #699637",
"V. c #739737",
"C. c #6C932E",
"Z. c #77A836",
"A. c #79AD37",
"S. c #6A8545",
"D. c #768B48",
"F. c #769C45",
"G. c #749051",
"H. c #7AA549",
"J. c #7FAC4E",
"K. c #78A642",
"L. c #7EB041",
"P. c #7C8770",
"I. c #849D52",
"U. c #839155",
"Y. c #89A156",
"T. c #87A556",
"R. c #85B155",
"E. c #8BB65B",
"W. c #8EB75A",
"Q. c #8CB057",
"!. c #9B867A",
"~. c #8A8875",
"^. c #AD8F72",
"/. c #92BB63",
"(. c #92AB73",
"). c #A3B97F",
"_. c #8AC944",
"`. c #93D849",
"'. c #93D14E",
"]. c #96C066",
"[. c #9BC56B",
"{. c #9FC870",
"}. c #A3CC74",
"|. c #ABD47D",
" X c #A8D179",
".X c #A3DD64",
"XX c #85BD3F",
"oX c #1B1E81",
"OX c #383B87",
"+X c #252880",
"@X c #7C7B87",
"#X c #736F80",
"$X c #6163A3",
"%X c #827D88",
"&X c #7F808C",
"*X c #7F8191",
"=X c #81818C",
"-X c #8A8689",
";X c #958987",
":X c #808294",
">X c #999699",
",X c #998F92",
"<X c #A48A85",
"1X c #A9978C",
"2X c #A89898",
"3X c #B7999A",
"4X c #AF8D91",
"5X c #99AD82",
"6X c #B3A299",
"7X c #A8B194",
"8X c #999BAB",
"9X c #9B9BA6",
"0X c #8082B2",
"qX c #B09AA1",
"wX c #AAA5A7",
"eX c #B6AAA5",
"rX c #BEB2AA",
"tX c #BAB5B4",
"yX c #B0AAB2",
"uX c #C69DA2",
"iX c #C2B5AC",
"pX c #C4BCB5",
"aX c #D3ADB4",
"sX c #B2DB84",
"dX c #B6DC8A",
"fX c #B9D994",
"gX c #ADCC89",
"hX c #BAE38D",
"jX c #B7E08A",
"kX c #BDE293",
"lX c #BBCAA8",
"zX c #C2E69A",
"xX c #CBC3BD",
"cX c #C6D1B9",
"vX c #CBE6AC",
"bX c #9394C6",
"nX c #DBBDC7",
"mX c #CBC6C5",
"MX c #D6CBC6",
"NX c #D8D2CC",
"BX c #DBD6D5",
"VX c #E3DAD7",
"CX c #E2C0C7",
"ZX c #FEFEFE",
"AX c #E6E3E0",
"SX c #E0EBCE",
/* pixels */
"                                                                                                                                ",
":XT T T T P K : 3 3 4 4 4 P P U U P 4 4 4 : : ; ; ; ; ; ; 3 3 ; * * ; ; 1 1 6 6 : : : : : 4 P I T T E E W W ' ' W W W W E T U 8X",
":XT T T o.Q : : 3 ; ; : 4 U U U P : : 4 4 : : : 4 4 4 ; ; ; ; ; ; ; ; ; ; 1 6 4 : 6 U 4 P P P I T T T R E E W W W E W E I U U 8X",
":XT T T Q Q P : : ; : : 4 U U P 4 : : : : : : K U U U 4 : ; ; ; ; ; ; ; ; ; ; ; ; T o.U P K P I T T T R R E W W W W W E T P U 8X",
":XT T U K T 6 : : : 4 4 U U U : : 4 4 : : : 4 U T T U U : : ; ; ; ; ; * ; * ; ; 3 6 T U U T T T T E E W W W { [ [ { } Q E T T 8X",
":XU U : : : 4 ; : 4 : : : 4 4 : : 6 6 4 4 : P U T T U K : 7 ^ _ #._ ( t * * ; ; 3 4 4 U U T P P T E W ' ' X.OX{ | X.o.o.) T T 8X",
":X6 : : : ; ; ; 1 1 6 ) 4 : : : : 4 4 4 P U U U U K T 7.=X>X,X=X@X@X-X,X-X6.^ ; ; 4 4 6 U U P P T E ' [ [ | ..| | o.$X0Xo.Q T 8X",
":X6 : 3 3 ; ; ; 6 T 6 T 4 ; 3 4 4 : 4 P K U U K 6 7.wX>X8./ 0 < < , < ~ _ q.>Xq.^ ; 3 4 4 P U T E W ' ' [ { | | | OXbXbXo.} T 8X",
":X5 ; ; ; 3 ; ; 6 ) 6 : : : ; 4 4 4 : K K K : T =XwX=.0 9 9 9 < < < , , , , ~ 8.9X6.6 : P P U T E ' ' ' } } | oXoX+XOX$XX.} Q 8X",
"&X5 ; ; ; ; 3 ; ; ; : 4 4 : : 3 3 3 : 1 K : t wX>Xw 0 0 9 9 9 < < < , , , , , > ) ,X@XU P U T E W ' ] } OXOX..oX| | ..X.X.X.E 8X",
"=X5 ; ; ; ; ; ; ; 3 4 4 6 6 4 4 ; 6 _ 6 ; 6 >X2Xw 0 0 0 9 9 < 0 ~ / / / ^ ~ 2 , > ! @X#XU I T E W ' { ..$X$X..| | { ] ' ' W E 8X",
"=X5 ; 5 3 ; ; ; ; ; ; ; 4 U U P : 6 7.^ *.-XyXw q 0 0 0 / 2.P.(.5XgXgXgX5X).5X-X6.^ 2 #X_ I R E W X.} | OXOXX.| | ' W W W W Q 8X",
"=X- * ; 3 3 : : ; 3 ; ; : 4 U P 4 T *.yXwXmX+.q q 0 / e.(./.].].].{. X X X|.sXkXvXcX>X7.*.E E E ' { ] ' { X.+X| [ ' W W W E T 8X",
"&X- * ; ; ; 1 6 4 4 ; ; : : P P : 7.BXtXmXq.q q w 5.G.R.R.E./.].]. X X X X|.sXsXsXkXvXSX>X) R W [ [ ' W W ' [ [ [ ] } ' W E T 8X",
"@X- * * ; ; : U 4 : 4 4 4 4 4 : ( mXnXwXwXq q +.G.B.K.J.R.E./.].]. X X X X|.sXsXfXdXjXzXSXtXo.' { ' ' W W Q ( ] ' ' X.} W E T 8X",
"&X- * * * ; : 6 4 : : : 4 4 : 5 >XVXqXxX@.q =.G.m.B.H.J.R.E./.].]. X X X X|.sXsXfXdXjXjXkXSXyXQ W W W E ( N.H W ' ' ' ' W E T 8X",
"&X- * * * 3 3 3 4 4 : : : : ; *.VXaXqXqXq +.G.n.C.F.H.J.R.E./.].].{. X X X XsXsXfXjXjXjXjXkXvXw.G G F B._.R.$.E ' ' ' W E I T 8X",
"@X- * * ; 3 3 3 ; 3 : 4 ; ; 5 wXCX2XpX8.w H v.n.B.F.H.J.R.E./.].].{. X X X XfXzXfXjXjXjXjXkXzXlXL.`.`.`.R.~.=.E W W W W E T T 8X",
"@X- * ; ; ; ; ; 3 ; ; 3 3 ; *.MXaX,XyXw l n.m m.B.F.H.J.R.E./.].].{. XfXfXsXsXzXkXjXjXjXjXkXkXvX(.'.`.H.d.4X*.W W E E E I I T 8X",
"@X- * * * * ; ; ; ; ; ; * * >XnX3XwX%X@ n v.v.M.B.F.H.J.R.E./.].].{. X XfXzXsXkXvXjXjXjXjXjXjXzX5X_.L.4.z.4X_ ' W E E T T T T 8X",
"&X= & * * * * * * * * * * t mXaX4XpX+.l v.m v.M.B.F.H.J.R.E./.].].{. X XgXfX XdXvX XfXdXE.R.H./.7XL.F s.z.%X) W W E T T E E T 8X",
"&X= & & * * * * * * * * * 6.MXuX,XyXw n v.m n.C.B.F.H.J.R.E./.].]. X X X X}.E./.Q.Y.Q.F.V.Y.G.F.).5.2.l.<Xl.o.X.W E E E E W E 8X",
"&X= & & * & * * * * * * * ,XaXuX2X,X$ b m m n.C.B.F.H.J.R.E./.].].dXgX/.Q.Y.Y.Y.Y.Y.Y.I.F r i % G.,.2.l.!.8.X.OX' W E E E E T 8X",
"&X= & * * * * * * * * * - yXaX3XtXq.$ m m m v.M.B.F.H.R.R.R.R.W.].}.W.Y.Y.Y.Y.Y.Y.Y.Y.5.r tXBX$.r 2.3.l.k.)  .{ [ ' R E E E T 8X",
"%X= & * * * * * * * * 7 _ yXaX3XxX@.% v.m m m n.B.K.H.K.C.m.M.F.H.Q.Y.Y.Y.Y.Y.Y.Y.Y.Y.% r AXZX-Xr 2.3.f.8.W ' [ [ ' W E E E T 8X",
"=X= & * * * * * * * * 5 6.tXaX3XmX+.c v.m m m m n.B.B.n.v.B.).fXE.Y.Y.Y.Y.Y.Y.Y.Y.Y.D.V 9.$.w.r y 2.3.0.) ' ' ' [ [ ' W E E Q 8X",
"=X= * * * * * * * * * * 9.yXaX3XeXH A.A.B.m.m m b v.v.v.C.S.V &.F F I.Y.Y.Y.Y.Y.Y.Y.D.V 9.. y o =.&.,./ W ' ] { [ [ ' W W W E 8X",
"=X= & * * * * * * * ; ; @XyXaXj.D._.`..XvXW.M.v.b b b.n.z . y NXmX=.% D.Y.Y.Y.Y.Y.Y.D.O . . . i P.u & E ' ' ] [ { { ' ' W W Q 8X",
"&X= & * * * * ; * ; ; 3 >XpX;XH _.`.`.`..X`.Z.m.b b v.l . . =.ZXZXmXX i D.Y.Y.Y.Y.Y.I.u j g.A V (.*.L ' ' ' [ [ [ [ ' W W E T 8X",
"&X= * * * * ; ; ; ; : 6 >X,XH _.'._.XXL.Z.Z.C.M.n.v.n O . o r 9.tX-XX . V Y.Y.Y.Y.Y.Y.S.A ^.U.D.5.Q W ' ' { [ [ [ ' W E E E U 8X",
"&X= * * * ; ; ; : : P 6 9.U.V.V.C.C.M.M.D D D M.M.v.l o X ,X9X. r r . . z Y.Y.Y.I.I.I.Y.I.D.N.N.` ) 7.W  .{ ] ] ' W W E E T U 8X",
"@X- * ; ; ; : 1 : : ) #X(.C.M.M.D G G F ,.,.B V M.v.x % o y y . o o y X V Y.F.F.I.D.N.B.M.n.N.r.Q 5XgX_ ) ' ' ] W E E T T T U 9X",
"=X- * ; ; : P U : *.wX6XD.H J F B ,.s.s.s.3.,.g V n.v.n % . + @ . o A $ S.I.D N.5.&.N b v.S.5.@X=.gXfXP.P.W ' W E T U U U U U 8X",
"%X- * ; 4 4 U U P _ qXuX4X<Xz.k.k.k.l.s.p.3.2.,.V n v.v.n % S ^.<X^.J N V.M.5.k.k.4.n m.D.g.a.^.H  XfX7Xr.R W W E T P P U K U 8X",
"@X^ ^ ; 4 4 U U U K ) w.3X4X<X%Xk.k.l.s.p.3.2.,.g x v.m v.n.n H D.N.b v.m m G 5.pX(.H 5.y.v v a.N.sXfX7X) R E E T U P P U P U 8X",
"@X( ) : 4 4 4 U P U K 4 w.6X4X<Xk.k.l.s.p.3.2.,.&.z n m b.(.T.b b b.v.v.m v.v.b S.F g.B t.d d t.G  XfXP.U I T T P P 4 4 P P U 8X",
":X5 : 4 : : : : : 6 6 : q.k.j.<X<X<Xk.f.s.s.s.0.&.B V V N D D b b b m m M N c c p v ^.A p s s t.c m. X5XO.P T U P K : P P P U 8X",
"*X5 4 : : ; ; : ; ; ; ; =.3.3.c.p.2X,Xj.w.0.2.%.B g V D.F u i % % % c p # # # p t.t.v a + # a s $ r V *.U P P U K P P K P U U 8X",
"*X6 4 : : 3 ; ; ; ; 3 ; *.1Xk.x.y.!.,X$.g u u f g g n Z._.E.G.%.C f.v s # + # a s p # s A $ + + @ * 5 : P U P P U U K U U T T 8X",
"*X6 4 4 4 4 ; ; : : 4 P ( i.d.x.y.d.j.$.u g h %.%.B l n m.Z.'.G.S y.t.a p + + + + # s v p.u u $.9.;XwX( : P P P T T P U U T U 8X",
":X6 6 4 4 4 ; ; : P U T T ,.3.x.t.<.w.=.B h B %.g C.Z.n b b Z.R.v d p + # # # $ a a f B 9.~.6XpXNXVXVX*.; ; : 4 6 K U U P U U 8X",
"=X6 1 ; 4 4 ; : 4 P P I T j.,.s.t.i.l.j.;Xj.0.9.&.F D n b b C.'.S p # $ f g B ,.4.g.;X2XeXiXxXMXNXVXMX*.* * ; ; : 4 6 6 U P U 8X",
"&X6 : ; ; 4 4 4 U U P T T -Xs.0.v i.u.s.s.k.j.j.0.,.-.B N x n D.j a f 1.<.p.d.h.!.<X6XeXeXiXpXpXtXtXmX6.& * 7 ) 3 ; 4 4 6 4 6 8X",
"&X5 ; ; ; 4 4 : 4 P P T P #Xk.2.d.p.h +.>.s.l.l.u.:.:.>.C $ l V @ f Z i.h.i.d.h.!.!.2XrX;X;X,X6XpXNXAX6.& & 7 _ * ; ; ; 4 6 6 8X",
"&X5 ; ; ; ; ; : : : U U K *.4X>.-.-.k >.-.h h h -.-.-.-.;.k f f f C <.s.4.,.,.,.2.2.0.j.;X6XiXxXMXNXVX$.& * * * * * * ; ; 4 6 9X",
"&X5 ; * ; ; * ; : : U P P T ,Xs.>.-.>.u.:.:.>.-.C B B B B B B B B B %.&.%.,.4.0.h.!.1X6XeXrXpXxXNXVXmXt * * * * * * * ; ; : 6 9X",
"&X5 ; * * * * ; : 4 P P U T 6.z.u.u.u.:.:.:.>.>.>.>.>.>.Z Z A 1.<.<.4.p.i.d.h.k.!.<X1X6XeXiXxXNXNXAX,X& * * * * * * * ; 3 1 6 8X",
"=X5 * * * * * ; ; ; 6 6 1 3 t ;Xs.u.u.:.:.:.>.>.>.>.>.Z Z Z A 1.1.<.p.p.i.d.f.k.!.<X1X6X6XiXpXxXMXVX*.* * ; * * * * ; 4 4 6 6 8X",
"=X- * * * & * * * ; ; ; ; ; * *.k.u.u.u.:.:.>.>.>.>.>.Z Z Z A 1.1.<.p.i.i.d.f.k.!.<X1X6X6XrXpXxXVX>X- * ; ; * * * * ; ; 4 4 6 8X",
"=X- * * * & & * * * * * ; ; ; 5 q.l.u.:.:.:.>.>.>.>.Z Z Z Z A 1.1.<.p.i.i.d.f.k.!.<X1X6X6XrXpXMXMX( ; ; ; * * * * * * ; 1 : 6 8X",
"=X- ; ; * 5 ^ * * * * * * * ; ; t -Xs.:.:.:.>.>.>.>.Z Z Z Z A 1.1.<.p.i.i.d.f.k.!.<X1X6XeXiXpXNX6.; ; ; 3 * * * * * ; ; 1 1 U 8X",
"&X5 ; : ; 5 5 * - & & & * * * * & t ;Xs.:.:.>.>.>.>.Z Z Z Z A 1.1.<.p.i.i.d.f.k.!.<X1X6XiXxXMXq.* ; ; ; * * * * * * ; ; 1 U U 8X",
"*X5 ; 4 ; * * 5 7 * * * * * & & & & t ;Xk.:.>.>.>.>.Z Z Z Z A 1.1.<.p.i.i.d.f.k.!.<X1X3XiXxXq.5 ; ; ; * 7 5 * * * ; ; 4 P U U 8X",
":X5 3 ; ; * * * * * * * * & & & & & & t -XeXi.;.>.>.Z Z Z Z A 1.1.<.p.i.i.d.f.k.!.<X2XiXyX7.; ; 3 ; 3 3 _ 6 ; ; ; ; 4 U P P U 8X",
":X5 3 ; * * * * * * * * * & & & & & & & = 6.wX<Xu.Z Z Z Z Z Z 1.<.<.p.i.i.d.d.h.!.6XrX@X^ : : : ; ; ; ; 3 3 ; ; 3 ; 4 4 U U U 8X",
"&X5 ; * * * * * * * * * & & & & & & & & & & t q.wX3Xd.1.Z Z Z 1.1.<.4.p.i.d.!.2XwX%X( ; : : 6 1 ; ; ; ; ; 3 ; ; ; ; 3 4 U U U 8X",
"&X5 ; ; * * ; * * * * * & & & & & & & & & & & & t 6.;X2X!.d.i.p.i.d.h.!.1X2X;X9.^ * ; ; 4 4 6 6 6 6 ; ; ; ; ; ; ; ; ; : P U U 8X",
"&X5 ; * * * * * * * * * & & & & & & & * & & & & & & & t *.6.9.q.w.w.q.6.*.t 5 * ; ; ; 3 6 4 : U 4 4 : ; : 4 4 3 ; ; ; 4 4 U T 8X",
"=X- * * * * * * * * * * * & & & & & * * * & & & & & & & ^ 7 & & & & & & * * * * * * ; ; ; 4 4 U 4 4 4 4 4 ; : 4 ; ; : 4 4 U T 8X",
"=X- * * & * * * * * * * * & & & & & * * * * * * * & & & - - & & & & & & * * * * * * ; ; ; 4 : 4 : 4 4 4 4 3 : 4 4 4 4 4 K P U 8X",
"&X- ; * * * ; * * * * * * * * * & * * * * * * * * & & & & & & & & & & & & & & * * * * ; ; ; 4 4 : : 4 4 4 4 4 4 P U U I P I U 8X",
"&X5 ; ; * ; 3 ; ; * * * * * * * & * * * * * * * * * & & & & & & & & & & & & & & * * * ; ; ; 3 4 4 K K K 4 4 4 : P T T T E T U 8X",
"                                                                                                                                "
};
