/* XPM */
static char *wall[] = {
/* columns rows colors chars-per-pixel */
"64 63 203 2 ",
"   c None",
".  c #030203",
"X  c #090706",
"o  c #03030C",
"O  c #0D0A0B",
"+  c #0B0808",
"@  c #120D0C",
"#  c #19110E",
"$  c #050514",
"%  c #0E0B14",
"&  c #06061A",
"*  c #07081D",
"=  c #09091C",
"-  c #120E14",
";  c #161011",
":  c #1C1514",
">  c #1B151A",
",  c #261A14",
"<  c #291C16",
"1  c #251A1B",
"2  c #291D1D",
"3  c #201717",
"4  c #2D211D",
"5  c #27211D",
"6  c #32221B",
"7  c #070823",
"8  c #0D0D25",
"9  c #0D0D2B",
"0  c #050624",
"q  c #100F28",
"w  c #131327",
"e  c #13132B",
"r  c #1B1823",
"t  c #0D0E34",
"y  c #0E0F3A",
"u  c #100F36",
"i  c #100F3B",
"p  c #0E1035",
"a  c #0F103B",
"s  c #141433",
"d  c #12123D",
"f  c #1B1C3A",
"g  c #1C1D34",
"h  c #0F102F",
"j  c #2B1F20",
"k  c #281E2B",
"l  c #2E2122",
"z  c #2C262E",
"x  c #332424",
"c  c #372826",
"v  c #392926",
"b  c #3C2B29",
"n  c #372828",
"m  c #39302B",
"M  c #262438",
"N  c #412E2B",
"B  c #422D23",
"V  c #44312C",
"C  c #4A342D",
"Z  c #483227",
"A  c #53392C",
"S  c #433332",
"D  c #4C3631",
"F  c #4C3834",
"G  c #4C3D3A",
"H  c #433938",
"J  c #533A33",
"K  c #593E36",
"L  c #523F3C",
"P  c #4E423C",
"I  c #5C4036",
"U  c #53413C",
"Y  c #5D433A",
"T  c #62453A",
"R  c #6A4A3C",
"E  c #654639",
"W  c #74503E",
"Q  c #0E0F40",
"!  c #100F41",
"~  c #0F1042",
"^  c #0F114A",
"/  c #111244",
"(  c #12134B",
")  c #17184E",
"_  c #1A1B4A",
"`  c #191A48",
"'  c #0E1251",
"]  c #121353",
"[  c #171852",
"{  c #191951",
"}  c #12145C",
"|  c #18195A",
" . c #1F2046",
".. c #252547",
"X. c #30314C",
"o. c #222355",
"O. c #2A2B51",
"+. c #242457",
"@. c #333457",
"#. c #131663",
"$. c #141865",
"%. c #1A1C63",
"&. c #14176A",
"*. c #15186A",
"=. c #1A1D6C",
"-. c #161A73",
";. c #1A1D7C",
":. c #181B75",
">. c #1D2277",
",. c #1F216F",
"<. c #282968",
"1. c #212472",
"2. c #272A77",
"3. c #363779",
"4. c #30326F",
"5. c #3F406D",
"6. c #5A4843",
"7. c #5E504E",
"8. c #634C46",
"9. c #6C4E42",
"0. c #614E49",
"q. c #714E41",
"w. c #64514D",
"e. c #69524B",
"r. c #745142",
"t. c #7B5544",
"y. c #7E5848",
"u. c #745C53",
"i. c #745F59",
"p. c #7B5E52",
"a. c #6E5954",
"s. c #76615B",
"d. c #7C655D",
"f. c #7F6054",
"g. c #4B4B71",
"h. c #7D6861",
"j. c #815946",
"k. c #845C4A",
"l. c #895E4B",
"z. c #8D614D",
"x. c #86604F",
"c. c #886252",
"v. c #946651",
"b. c #976953",
"n. c #9C6C54",
"m. c #926C5C",
"M. c #9A715E",
"N. c #90634F",
"B. c #A16F56",
"V. c #A67259",
"C. c #A9755C",
"Z. c #A37057",
"A. c #826B63",
"S. c #8A6E61",
"D. c #8C736A",
"F. c #8B7166",
"G. c #967A6E",
"H. c #947C71",
"J. c #997E72",
"K. c #AB7B63",
"L. c #A97B66",
"P. c #9A8176",
"I. c #9D8379",
"U. c #AE816C",
"Y. c #B1826B",
"T. c #A78677",
"R. c #B38772",
"E. c #B58A75",
"W. c #B68D7A",
"Q. c #B98F7B",
"!. c #BA917E",
"~. c #B5907E",
"^. c #1B1E81",
"/. c #383B87",
"(. c #252880",
"). c #4D4F93",
"_. c #7E7F8B",
"`. c #7073AE",
"'. c #807F8A",
"]. c #7F808C",
"[. c #7F8191",
"{. c #80818D",
"}. c #808191",
"|. c #818399",
" X c #A98E82",
".X c #AC9185",
"XX c #BD9583",
"oX c #B49689",
"OX c #B79789",
"+X c #BD9F91",
"@X c #BEA092",
"#X c #999BAB",
"$X c #9A9AA7",
"%X c #8082B2",
"&X c #A2A3B2",
"*X c #C19D8C",
"=X c #C09886",
"-X c #C6A08F",
";X c #C3A394",
":X c #C8A594",
">X c #CAA99A",
",X c #C6A798",
"<X c #9394C6",
/* pixels */
"                                                                                                                                ",
"|.) ) ) ) ~ Q y p p a a a ~ ~ / / ~ a a y y y t t t t t t p p t 9 9 t t i i d d y y y y y a ~ ^ ) ) ] ] ] } #.#.} } } } ) / / #X",
"|.) ) ) 4.{ y y p t t y a / / / ~ y y a a y y y a a a t t t t t t t t t t i d a y d / a Q ~ ~ ^ ) ) ) ] ] ] } } } ] } ] ^ / / #X",
"|.) ) ) o.o.a y y t y a a / / ~ a y y y y y y Q / / / a y t t t t t t t t t t t t _ 3./ ~ Q ~ ) ) ) ) ] ] ] } } } } } ] ) ~ / #X",
"|.) ) / Q ) d y y a a a / / / y y a y y y y a / ) ) / / y y t t p t t t t 9 t t t d ` / / ) ) ) ) ] ] } } } *.&.&.*.%.| ] ) _ &X",
"|./ / y y y a t y d y y y a a y y d d a a y ~ ) ) ) / / a y y y t t t t t 9 t t p a a / / ) / ~ ) ] } #.#.2./.*.-.1.3.3.+.) _ &X",
"|.d y y y t t t i i d o.a y y y y a a a ~ / / / / / / / / a y y p p t t t t t t p p a d / / ~ ~ ) ] #.&.&.-.>.-.:.3.`.%X4.{ ` #X",
"|.d a p t t t t d ) d ) a t p a a y a ~ Q / / / a Q Q / / ~ a y p t t t t t p a p p p a a / / ) ] } #.#.&.*.-.:.;./.<X<X3.%.) #X",
"{.s t t t p t t d O.d y y y t a a y y ! / / a a y y Q ~ ) / ~ a a t t t t t a a t t y y ~ ~ / ) ] #.#.#.*.*.:.^.^.2.).).2.%.{ #X",
"].s t t t t p t t t y a a y y p p p y i / d p t t y / ) ) ) ) ~ a a t t t a a a y a a ~ ~ / ) ] } #.$.*././.>.^.;.:.>.,.<.<.] #X",
"{.s t t t t t t t t a a d d a a t d @.d y t t t y t 7 7 7 7 7 7 7 7 a y p a a ~ a a / ) ) ) ) ] } #.*.1.`.`.>.;.-.*.$.#.#.} [ #X",
"{.e t u u t t t t t t t a / / ~ y d g.f t t 9 t t t O O O O O O O = t t t y a ~ ~ ~ / ) ] ] ] ] } 2.*.*././.2.;.-.#.} } } } [ #X",
"{.e 9 t u u y y t t t t y a / ~ a ..s 9 9 9 7 o o > P. X X X X X.Xh.o o $ y / ) ^ ~ ^ ] ] ] ] ] #.*.$.#.*.2.(.:.&.#.} } } } ) #X",
"].e 9 t t t i d y a p t y y ~ ~ d d h 7 * * r G P 7.~.=XXX>XOXJ..XT.U P H 9 9 t 9 t ^ ] } } } } *.&.#.} } #.&.&.&.$.%.#.} ] ) #X",
"_.e 9 9 t t y / a y a a a a a a a t 9 = o o m ;X>X*XC.V.C.;XH.V z.Y.;X>X X: o X o = ~ ) ] ] } #.*.&.#.} } } #.#.#.#.1.*.} ] ` #X",
"].e 9 9 9 t y d a y y y a a y y p t $ O 1 d. X>XF.9.n.V.C.K.V.z.W.T.8.m.U.I.I.I.P.7.o $ 0 ] } } } } } } #.} } #.#.#.#.#.} ] ) #X",
"].e 9 9 9 p p p a a y y y t t t 9 7 O 2 6.D. X*Xf.T K.M.z.K.K.C.!.T.K l.K.*X*X*X-XF.b m z y ) ] ] } } #.#.} } #.} } } } ] ^ ) #X",
"_.e 9 9 t p p p p p y a t t t t & o 1 w.;X6.D V.V.K.:XA.D oXXXV.V.V.V.V.V.V.V.V.V.R.,X>XH.o t ] } } #.$.$.#.#.#.} } } } ] ) ) #X",
"_.e 9 t t t t p p t t t t = o o % 1 A.A.w.A.I.XXc.9.U.M.k.L.W.XXK.V.V.V.V.V.V.V.V.K.R.:XH.o 9 ] } #.#.#.$.*.&.#.} ] ] ] ) ^ ) #X",
"_.e 9 9 9 9 t t t t t 9 9 r 5 5 c F .XG.V T.:X;Xd.Y z.V.K.K.W.>XE.V.v.V.K.v.n.V.V.V.V.XXJ.l s ~ ] } #.#.#.*.*.#.} ] ) ) ) ) ) #X",
"].w 7 9 9 9 9 9 9 9 9 7 o s.;X@XR.n.V.V.n.V.C.C.XX.XD A.>X>X>X>X>XT.V J.oXD r.C.V.V.V.V.U.+XH o ) } } #.#.2.1.} } ] ) ) ] ] [ #X",
"].w 7 7 9 7 9 9 9 9 9 7 o d.>X!.L.V.V.K.!.k.t.V.Y.E.D.A.i.i.i.s.OX+XD.A.d.F.p.r.R.R.V.V.K.E.F.7.w y } } } #.1.2.} ] ] ] ] } [ #X",
"].w 7 7 9 7 9 9 9 9 9 q : A.:XC.V.K.n.L.;Xe.I V.C.K.OXi.2 j j l H.+X:Xu.U oXA.L  XW.K.n.n.V.XXT.@ 9 } } } #.2./.#.} ] ] ] ] ) #X",
"{.w 7 9 9 9 9 9 9 9 o l .X;X;XC.E.*XY R K.n.n.V.!..XG n l l l l b Y K.V.z.S h.oXL u.;X6.J V.C.c.X 9 } %.$.#.#.*.&.#.] ] ] ] ) #X",
"{.w 7 9 9 9 9 9 7 = H u.!.!.W.C.M.A.9.c.E.c.x.E.G.d.n l l l l l l v I z.v.n 7.A.b G A.s.u.q.v.b.A k t %.$.#.#.&.&.#.} ] ] ] ` #X",
"{.w 7 9 9 9 9 t = o H.-XV.V.V.B.T n l.U.+X8.8.,Xe.1 l l l l l l n 1 o R v.c l l l l n T.P.b t.B.C.A + ) #.#.#.#.&.&.#.} ] ] { #X",
"{.w 9 9 9 9 9 t = o H.-XC.C.n.D v l N D G y.L.>X6.O j l l l l l v 2 o R n.n n v v n l S w..Xe.J n.v.t.> t #.$.$.&.&.#.} } } ] #X",
"{.w 7 9 9 9 9 9 = o m.!.C.z.q.n l n n l l k.Y.>XP o l 2 3 n n n 2 5 v R r.n n v I Y J n F H.e.T B.C.n.# & Q } &.*.*.#.} } } { #X",
"].w 7 9 9 9 9 t = o t.C.V.Y j l n b b v n k.U.>XU X v : o n b v @ 2 n.T v l l v v.V.n.D l l t.V.V.V.b.: o o ] &.&.&.#.} } ] ) #X",
"].w 9 9 9 9 t t 7 o t.v.J b l c b b n 6.P.8.E U.v.R : o o O O @ I W I N n l K k.K D J t.R n t.n.J t.V.j.Z o ] &.&.#.} ] ] ] / #X",
"].w 9 9 9 t t t 7 o E r.l l n v v b G d.*Xe.K l.z.t.6 < < < < < W r.v n l n T k.n > 1 l.l.n R j.D R z.V.W 2 d ] #.} } ] ] ) / $X",
"_.e 9 t t t d d 9 o 1 n l n b l l b .XXXV.V.l.V n N b.B.B.B.B.n.D l l l n b b v O o X j.l.n l V n.E v v.V.n., & } ] ] ) ) ) / $X",
"{.e 9 t t y ~ / 9 o 3 l l n n n 0.H.R.M.T T R y.J v K I I I I K v l l n n n n n 1 1 2 J J l l n T D v I y.B.< & ] ) / / / / / #X",
"'.e 9 t a a / / 9 o 1 l l l n v d.-Xb.R n c J v.R C l l l l l l n n l n v l b F U F b v n n l n b b b n I z., & ) / ~ / / / / #X",
"_.....t a a / / 9 o 1 l l n b b r.V.< X o 5 N V y.N.v l l v b b b v l l j 2 s.;X;XD.j l n b n n b b b n n n + $ ) / / / / ~ / #X",
"_.X.O.y a a a / t 7 - : l n b b J T 1 O o @ : : C T n l l v b b b v l 0.A.A.d.d.d.d.d.S l n n l n n n n 1 - 7 t ~ Q y a ~ ~ / #X",
"|.s y y y y y y a a $ O 1 n b b n j l 3 o o o o : l n l l v b b b b b D.;X;Xi.2 2 w.OX6.n l l l l l l l : o y ) ~ Q y a ~ ~ / #X",
"[.s a y y t t y t t t 7 o : n b n l l 2 1 1 1 1 n b b n l l l l l U oXa.S S b l l b L k.t.l n v l l l n : o t / Q ~ ~ Q ~ / / #X",
"|.d y y y p t t t t a t & - 3 n n n n n n n l l c b b v n n n l j L !.8.l l l l n 5 1 l.l.n n n l l j : - & y / / / Q / / ) ) #X",
"[.d a a a p t t y y d / ~ & o 2 n b b b b n l l n b b b b b c l j D B.T n n l n v 2 @ t.k.n l l l l 1 o & a ~ / ) ) ~ / / ) / #X",
"|.d d a a a t t y ~ / ) ) Q t + : n b b b n l l n n n n b b n l 2 C V.Z @ c b n @ v j.T C l l l n : O 7 t t y a d y / / ~ / / #X",
"{.d i t a a t y a / ~ ) ) ) Q o ; l n v b n n l n n l n v b n l C I W < o 1 2 1 o B V.J n l l j 1 - $ 9 t 9 t t y a d d / ~ / #X",
"].d y t t a a a d / ~ ) ) ) / o ; l l n b b v l n v l l l v n n k.t.X o o o o o o B B.C l l l 1 o $ 9 9 9 9 f O.t t a a d d d #X",
"].s t t t a a a a ~ ~ ) ) ) +.g.M O O : n n n l n n v n l n n l J T W < o o o X E R I v 1 O O O = 7 7 7 7 7 f @.9 t t t a d d #X",
"].s t t t t t y y y / / ~ ) 4.`.@.o o % 1 1 1 1 2 l v n n l l n n F z.A , , , 6 j.R c 2 : o o o 7 9 9 9 9 9 9 9 9 9 9 t t a d $X",
"].s t 9 t t 9 t y a ~ ~ ~ / ` +.) d / 9 o o o o : l l n b n n v n n N t.B.B.B.v.V n l O o 7 7 9 9 9 9 9 9 9 9 9 9 9 9 t t y d $X",
"].s t 9 9 9 9 t y a a / ~ ) a d a a a t 7 * * = % @ @ @ : 2 n n n n n J R T Y K : @ @ % = 9 9 9 9 9 9 9 9 9 9 9 9 9 t t u i d #X",
"{.s 9 9 9 9 9 t t t d d y p t t t 9 9 9 9 9 t t & o o o o 1 2 2 n n 2 l n 1 1 1 o o o 7 t t t 9 9 9 9 9 9 t 9 9 9 9 t a a d d #X",
"{.e 9 9 9 7 9 9 9 t t t t t t 9 9 9 9 9 9 9 9 9 9 9 9 7 7 o o o o o o o o o o o 7 9 9 t u u t 9 9 9 9 9 t t 9 9 9 9 t t a a d #X",
"{.e 9 9 9 7 7 9 9 9 9 9 t t t t 9 9 9 9 9 9 9 9 9 9 9 9 7 & $ $ $ $ $ $ g g $ % 9 9 t t u u t 9 t t t t t 9 9 9 9 9 9 t i y d #X",
"{.e t t 9 s ..9 9 9 9 9 9 9 t t 9 9 9 7 7 7 7 7 w w w 7 9 9 9 t 9 9 t t O.O.t 9 9 t t t t t t 9 t u t t s 9 9 9 9 9 t t i i / #X",
"].s t y t s s 9 e 7 7 7 9 9 9 9 9 7 7 7 7 7 7 7 w w w w 7 9 9 9 9 9 t a a y t t t t t t t y t 9 t t t t 9 9 9 9 9 9 t t i / / #X",
"[.s y a p 9 9 s f 9 9 9 9 9 7 7 7 7 7 8 7 7 8 8 7 7 7 q 7 9 9 9 9 9 t d / a a t t y a a y y t t t t t t f s 9 9 9 t t a ~ / / #X",
"|.d p t p 9 9 9 9 9 9 9 9 7 7 7 7 7 7 7 7 7 8 7 7 7 7 7 7 9 9 9 9 9 y / / / / d d a a a y y y t p t p p @.d t t t t a / ~ ~ / #X",
"|.s p t 9 9 9 9 h h 9 9 9 7 w 8 7 7 7 7 8 w w 7 7 7 7 7 9 9 9 9 9 9 t y ~ ~ a a a a y a a y y y t t t t t t t t p t a a / / / #X",
"].s t 9 9 9 9 9 h 9 9 9 7 7 q w w 8 7 7 7 e 9 7 7 7 7 7 9 9 9 9 9 9 t t t t t t t t t y y y d i t t t t t u t t t t p a / / / #X",
"].s t 9 9 9 t 9 9 9 9 9 9 7 q w w 7 7 h 9 7 7 7 7 7 7 7 9 9 9 9 9 9 9 t t t s t t t t t a a d d d d t t t y t t t t t y ~ / / #X",
"].s t 9 9 9 9 9 9 9 9 9 9 7 q q w 7 9 9 7 7 7 7 7 7 7 9 e 9 9 9 9 9 9 9 9 9 s u t t t p d a y / a a y t y a a p t t t a a / ` #X",
"{.e 9 9 9 9 9 9 9 9 9 9 9 7 7 7 7 7 9 9 9 7 7 7 w q 7 7 X.f 9 7 7 7 9 9 9 9 h s 9 9 t t t a a / a a a a a t y a t t y a a / ) #X",
"{.e 9 9 7 9 9 9 t 9 9 9 9 7 7 7 7 9 9 9 9 9 9 9 h 9 7 7 e e 7 q 7 7 7 7 9 9 9 9 9 9 t t t a y a y a a a a p y a a a a a a ~ / #X",
"].e t 9 9 9 t 9 9 9 9 9 9 9 9 9 7 9 9 9 9 9 9 9 h 9 7 7 7 7 q q 7 7 7 7 7 7 7 9 9 9 9 t t t a a y y a a a a a a ~ / / ) ~ ^ / #X",
"].s t t 9 t u t t 9 9 9 9 9 9 9 7 9 9 9 9 9 9 9 9 9 7 7 7 7 7 q q 7 q 7 7 7 7 7 9 9 9 t t t p a a Q Q Q a a a y ~ ) ) ) ] ) / #X",
"                                                                                                                                "
};
